<?xml version="1.0" encoding="utf-8"?><svg xmlns="http://www.w3.org/2000/svg" xmlns:xlink="http://www.w3.org/1999/xlink"><symbol viewBox="0 0 512 512" id="components--App--icons--task" xmlns="http://www.w3.org/2000/svg"><path d="M228.5 22.2c-31.1 3.5-68.3 16.5-95.5 33.3-22 13.7-47.2 36.1-62.2 55.5-25.6 33.1-41.7 71.2-48 113.5-2 13.6-1.7 51.2.5 65.5C33.6 356.5 70.4 414.5 126 451.6c28.7 19.1 62.3 32 96.6 37.1 16.4 2.4 50.4 2.4 66.8 0 41.1-6.1 81.5-23.7 113.6-49.4 45.9-36.8 76.4-89.7 85.7-148.5 2.5-15.9 2.5-53.7 0-69.6-8.3-52.4-32.9-99.5-70.8-135.6-37-35.2-86.1-58.1-136.1-63.5-11.4-1.3-41.9-1.2-53.3.1zm91.8 125.4l62.8 62.7-.3 91.1-.3 91.1-2.4 4.7c-3.4 6.7-9.5 12.6-16 15.7l-5.6 2.6-72.2.3c-49.9.2-72.3-.1-72.3-.8 0-.6 3.2-6.9 7.1-14l7.1-13h62.2c47 0 62.5-.3 63.4-1.2.9-.9 1.2-22.2 1.2-89.5V209h-37.2c-34.5 0-37.6-.2-41.5-1.9-6.1-2.8-12.7-9.4-15.4-15.4-2.4-5.1-2.4-5.8-2.7-42l-.3-36.7-44.7.2-44.7.3-.3 113.7c-.1 62.6-.3 113.8-.5 113.8-.8 0-11.5-4.5-18.9-7.9l-8.8-4V218.8c0-106.3.1-110.5 1.9-114.5 3-6.4 9.8-13.2 16.6-16.4l6-2.9h93l62.8 62.6zm-37.9 111.6c-3.9 7.7-26.6 49-29.8 54.4-2 3.3-3.6 6.2-3.6 6.7 0 .4-2.7 5.4-6 11.1-3.3 5.7-6 10.8-6 11.1 0 .4-1.5 3.3-3.4 6.4-1.8 3.1-5 8.7-7.1 12.6-3.8 7.1-11.5 21.3-21 38.5-2.9 5.2-6.8 12.4-8.8 16-4.2 7.7-6.7 10.9-7.3 9.5-.2-.6-4.6-6.9-9.6-14-5-7.2-15-21.3-22-31.4-7.1-10.1-14.3-20.2-15.9-22.5-8-10.9-12-16.8-11.7-17.1.2-.2 2.3.7 4.8 1.9s7.7 3.5 11.5 5c7.1 2.9 11 4.6 22.5 9.8 3.6 1.7 8.9 3.9 11.9 5l5.5 2.1 1.9-2.4c1-1.3 5.4-6.2 9.6-10.9 4.2-4.6 9.4-10.5 11.7-13 2.2-2.5 9.2-10.1 15.5-17 6.2-6.9 14.3-15.9 17.9-19.9 3.6-4.1 9.2-10.4 12.6-14 3.4-3.6 11-12.1 16.9-18.9 6-6.7 11-12.2 11.2-12.2.2 0-.4 1.5-1.3 3.2zM156.2 402.5c4.3 6 7.3 11.2 6.8 11.3-1.9.7-9.8-3.9-13.7-7.9-5.7-5.7-8.6-12.1-9.1-19.9l-.4-6.5 4.3 6c2.4 3.3 7.9 10.9 12.1 17z"/></symbol><symbol viewBox="0 0 512 512" id="components--App--icons--work" xmlns="http://www.w3.org/2000/svg"><path d="M228.5 22.2c-31.1 3.5-68.3 16.5-95.5 33.3-22 13.7-47.2 36.1-62.2 55.5-25.6 33.1-41.7 71.2-48 113.5-2 13.6-1.7 51.2.5 65.5C33.6 356.5 70.4 414.5 126 451.6c28.7 19.1 62.3 32 96.6 37.1 16.4 2.4 50.4 2.4 66.8 0 41.1-6.1 81.5-23.7 113.6-49.4 45.9-36.8 76.4-89.7 85.7-148.5 2.5-15.9 2.5-53.7 0-69.6-8.3-52.4-32.9-99.5-70.8-135.6-37-35.2-86.1-58.1-136.1-63.5-11.4-1.3-41.9-1.2-53.3.1zM259.7 71c.6 0 2.5 1.4 4.2 3.1l3.1 3.1v37.1l-4 3.8c-3.1 3-4 4.6-4 7.2 0 3.2.1 3.3 6.2 4.6 8.9 1.8 16.5 6 22.9 12.8 6.7 7 9.4 11.9 11.5 21 2.9 12.2.4 24.7-7.1 36L289 205l9 33.8c5 18.5 9.3 34.5 9.6 35.4.5 1.6 2.1 1.8 14.4 1.8h13.8l3-3c2.2-2.2 4-3 6.5-3 7.7 0 11.8 10 6.2 15.5-3.4 3.5-9.3 3.4-12.5 0-2.3-2.4-2.7-2.5-15.8-2.5h-13.4l.6 2.7c.4 1.6 5.9 22 12.2 45.5 6.3 23.5 11.4 44.6 11.4 46.7 0 2.2-.5 5.1-1.1 6.4-.9 2-.3 5.6 3.5 19.7 2.5 9.5 4.6 18 4.6 19 0 .9-.9 2.8-2 4.2-1.8 2.3-1.8 2.8-.5 7.9.8 3 1.5 5.5 1.5 5.6 0 .2-.9.3-1.9.3-1.5 0-2.2-1.2-3.1-4.9-1-4.2-1.6-5.1-4-5.6-1.5-.3-3.4-1.4-4.2-2.3-.8-.9-3.6-9.8-6.3-19.8-4.2-16.2-5-18.3-7.4-19.7-1.5-.9-3.5-3.3-4.4-5.4-1.3-3.1-26.7-97.8-26.7-99.8 0-.3-4.9-.5-11-.5h-10.9l-.3 11.1c-.3 9.4-.6 11.4-2 12.3-1.3.8-2.3.8-3.5 0-1.5-.9-1.8-2.9-2.1-12.3l-.3-11.1H241c-6.1 0-11 .2-11 .4 0 2.4-38.3 140.2-39.5 141.9-1.7 2.7-4.6 4.3-9.1 5.2-2.7.5-3.3 1.2-4.4 5.1-1.2 4.3-3.3 6.5-4.7 5-.4-.3 0-2.8.9-5.4l1.5-4.8-3.8-3.6c-5.8-5.6-5.8-7.7 0-28.9 2.7-10.1 8.7-32.1 13.2-48.9 4.5-16.8 10.3-38.4 12.9-48l4.7-17.5-12.8-.3c-12.5-.3-12.8-.2-15.3 2.3-5.6 5.6-15.6 1.4-15.6-6.5 0-8.3 10.4-12.2 15.8-6l2.6 3h27.3l3.2-11.8c1.7-6.4 6-22.4 9.6-35.6l6.4-23.8-2.9-3.7c-1.6-2-4.1-6.3-5.7-9.6-2.4-5.4-2.7-7.1-2.8-17.5 0-11.2.1-11.7 3.6-19.1 6.4-13.3 17.5-22.3 31.1-25.1l5.8-1.2v-4.1c0-3.5-.4-4.3-3-5.8-4.3-2.6-5.2-7.4-4.8-25.2.2-12.5.6-15.6 2.1-17.9 2.1-3.2 7.3-5.8 10.2-5.1 1.1.3 2.5.5 3.2.5z"/><path d="M242.5 141c-7.5 2.9-14.8 9.9-18.7 17.7-2.9 6-3.2 7.5-3.2 15.2.1 6.7.6 9.8 2.4 13.9l2.3 5.3 2.6-3.1c6.5-7.7 18.3-6.5 22.5 2.3 2.2 4.7 2 7.6-.9 18.1l-2.4 8.9 2.5-2.3c3.2-3.1 8.4-3.1 12.3-.3l2.9 2.2-2.4-8.7c-3.3-12.1-3.2-16.2.7-20.6 5.9-6.8 17.5-6.1 21.3 1.1l1.4 2.7 2.3-4.5c2.1-3.8 2.4-5.8 2.4-14.9 0-9.4-.3-11-2.7-15.5-5.2-9.9-15.7-18-25-19.2-3.5-.5-3.7-.4-4 2.8-.2 2.7-.8 3.5-2.7 3.7-2.6.4-4.1-1.2-4.1-4.6 0-2.8-2.6-2.8-9.5-.2zm2 88.2c-.7 3.1-10.9 41.2-12.1 45-.5 1.6.4 1.8 9.5 1.8H252v-11.5c0-9.9.2-11.6 1.8-12.3 1.9-1 4.3-.5 5.4 1.2.4.6.8 5.9.8 11.8V276h19.8l-1-3.8c-.6-2-3.7-13.4-6.8-25.2-5.1-18.9-5.9-21.2-6.8-18.9-1.4 3.6-4.9 5.9-9 5.9-4.3 0-6.9-1.4-9.2-5.2l-1.8-3-.7 3.4z"/></symbol></svg>