<svg xmlns="http://www.w3.org/2000/svg" viewBox="0 0 80 80" width="100" height="100" fill="rgba(157,185,157,.25)"><path d="M13 11c-2.2 0-4 1.8-4 4v34c0 .73.215 1.41.563 2H5v3c0 2.75 2.25 5 5 5h11v10c0 1.645 1.355 3 3 3h14c1.645 0 3-1.355 3-3v-2h21c1.645 0 3-1.355 3-3v-5h5c2.75 0 5-2.25 5-5v-3h-4.563A3.93 3.93 0 0071 49V15c0-2.2-1.8-4-4-4zm0 2h54c1.117 0 2 .883 2 2v34c0 1.117-.883 2-2 2h-2V31c0-1.645-1.355-3-3-3H38c-1.645 0-3 1.355-3 3v10H24c-1.645 0-3 1.355-3 3v7h-8c-1.117 0-2-.883-2-2V15c0-1.117.883-2 2-2zm3 4c-.55 0-1 .45-1 1s.45 1 1 1 1-.45 1-1-.45-1-1-1zm4 0c-.55 0-1 .45-1 1s.45 1 1 1 1-.45 1-1-.45-1-1-1zm4 0c-.55 0-1 .45-1 1s.45 1 1 1 1-.45 1-1-.45-1-1-1zm4 0c-.55 0-1 .45-1 1s.45 1 1 1 1-.45 1-1-.45-1-1-1zm4 0c-.55 0-1 .45-1 1s.45 1 1 1 1-.45 1-1-.45-1-1-1zm4 0c-.55 0-1 .45-1 1s.45 1 1 1 1-.45 1-1-.45-1-1-1zm4 0c-.55 0-1 .45-1 1s.45 1 1 1 1-.45 1-1-.45-1-1-1zm4 0c-.55 0-1 .45-1 1s.45 1 1 1 1-.45 1-1-.45-1-1-1zm4 0c-.55 0-1 .45-1 1s.45 1 1 1 1-.45 1-1-.45-1-1-1zm4 0c-.55 0-1 .45-1 1s.45 1 1 1 1-.45 1-1-.45-1-1-1zm4 0c-.55 0-1 .45-1 1s.45 1 1 1 1-.45 1-1-.45-1-1-1zm4 0c-.55 0-1 .45-1 1s.45 1 1 1 1-.45 1-1-.45-1-1-1zm4 0c-.55 0-1 .45-1 1s.45 1 1 1 1-.45 1-1-.45-1-1-1zm-48 4c-.55 0-1 .45-1 1s.45 1 1 1 1-.45 1-1-.45-1-1-1zm48 0c-.55 0-1 .45-1 1s.45 1 1 1 1-.45 1-1-.45-1-1-1zm-48 4c-.55 0-1 .45-1 1s.45 1 1 1 1-.45 1-1-.45-1-1-1zm48 0c-.55 0-1 .45-1 1s.45 1 1 1 1-.45 1-1-.45-1-1-1zm-48 4c-.55 0-1 .45-1 1s.45 1 1 1 1-.45 1-1-.45-1-1-1zm22 1h24c.566 0 1 .434 1 1v33c0 .566-.434 1-1 1H41V44c0-1.645-1.355-3-3-3h-1V31c0-.566.434-1 1-1zm-22 3c-.55 0-1 .45-1 1s.45 1 1 1 1-.45 1-1-.45-1-1-1zm0 4c-.55 0-1 .45-1 1s.45 1 1 1 1-.45 1-1-.45-1-1-1zm0 4c-.55 0-1 .45-1 1s.45 1 1 1 1-.45 1-1-.45-1-1-1zm8 2h14c.566 0 1 .434 1 1v25c0 .566-.434 1-1 1H24c-.566 0-1-.434-1-1V44c0-.566.434-1 1-1zm-8 2c-.55 0-1 .45-1 1s.45 1 1 1 1-.45 1-1-.45-1-1-1zm-9 8h14v4H10c-1.668 0-3-1.332-3-3zm58 0h8v1c0 1.668-1.332 3-3 3h-5zm-15 8c-.55 0-1 .45-1 1s.45 1 1 1 1-.45 1-1-.45-1-1-1zm-19 5c-.55 0-1 .45-1 1s.45 1 1 1 1-.45 1-1-.45-1-1-1z"/></svg>